<svg width="18" height="15" viewBox="0 0 18 15" fill="none" xmlns="http://www.w3.org/2000/svg">
<path d="M16.6354 0.937014L16.5759 0.792247C16.5741 0.788093 16.5708 0.784661 16.5665 0.78281L16.4188 0.718464C15.2024 0.188658 13.4867 0.057934 11.9687 0H10.2589C10.2396 0 10.2337 0.0250161 10.2511 0.0330085L13.7631 1.64762C13.7829 1.6567 13.7719 1.68496 13.7506 1.67964C12.1712 1.28408 10.5756 1.08386 9.00001 1.08386C7.42951 1.08386 5.83909 1.28286 4.26449 1.67589C4.24306 1.68122 4.23219 1.65263 4.25229 1.64374L7.88748 0.0331891C7.90509 0.0253772 7.89934 9.02607e-05 7.8799 9.02607e-05H6.03139C4.51344 0.0580243 2.79763 0.188749 1.58131 0.718554L1.43355 0.7829C1.42927 0.784751 1.42588 0.788138 1.42418 0.792337L1.36467 0.937105C0.119866 3.96187 -0.233854 9.09686 0.143362 12.3138L0.163139 12.4825L0.303082 12.5865C2.24769 14.0326 4.8479 14.7761 6.48366 14.9734L6.69518 14.9989C6.76393 15.0072 6.82962 14.9691 6.85391 14.9068L7.91856 12.1792C7.95175 12.0941 7.89525 12.0013 7.80173 11.9872L7.47504 11.938C6.33586 11.7663 4.72185 11.3114 3.35787 10.1251C3.32877 10.0998 3.35683 10.0543 3.39366 10.0674C3.5045 10.1069 3.62674 10.1527 3.7526 10.1998C4.06102 10.3154 4.37999 10.4349 4.58812 10.4823C6.05084 10.8158 7.53414 10.9849 8.99992 10.9849V10.9599H9.00298L9.00316 10.9849C10.466 10.9849 11.9492 10.8158 13.4118 10.4823C13.62 10.4348 13.939 10.3154 14.2475 10.1998C14.3732 10.1526 14.4954 10.1069 14.6062 10.0674C14.643 10.0543 14.6711 10.0999 14.642 10.1251C13.2826 11.3061 11.6666 11.7599 10.5248 11.9314L10.1982 11.9805C10.1047 11.9945 10.0481 12.0873 10.0813 12.1723L11.1461 14.9067C11.1704 14.969 11.2361 15.0071 11.3048 14.9988L11.5165 14.9733C13.1522 14.776 15.7522 14.0325 17.6969 12.5865L17.8368 12.4824L17.8566 12.3137C18.2339 9.09686 17.8802 3.96182 16.6354 0.937014ZM5.52516 8.36332C4.2028 8.47639 3.0996 7.41854 3.21736 6.15045C3.30768 5.17839 4.12389 4.39558 5.13758 4.30888C6.45993 4.19582 7.56314 5.25366 7.44538 6.52176C7.35502 7.49381 6.5388 8.27662 5.52516 8.36332ZM12.8626 8.36332C11.5402 8.47639 10.437 7.41854 10.5548 6.15045C10.6451 5.17839 11.4613 4.39558 12.475 4.30888C13.7973 4.19582 14.9006 5.25366 14.7828 6.52176C14.6924 7.49381 13.8762 8.27662 12.8626 8.36332Z" fill="white"/>
</svg>
