<svg width="18" height="15" viewBox="0 0 18 15" fill="none" xmlns="http://www.w3.org/2000/svg">
<path d="M5.15296 15C3.83359 15 2.54065 14.7635 1.31006 14.2971L0.0905735 13.8349C-0.0428111 13.7844 -0.0243493 13.5908 0.116218 13.5662L1.4013 13.3414C2.59189 13.133 3.71777 12.6499 4.68272 11.9366C4.78451 11.8614 4.74349 11.7031 4.61808 11.6847C3.49443 11.5204 2.4856 10.8433 1.91958 9.84973L1.63109 9.34332C1.57935 9.25256 1.64198 9.13938 1.74652 9.13441L2.33017 9.10656C2.33017 9.10656 2.33404 9.10639 2.33606 9.10622C2.48263 9.09901 2.51765 8.90016 2.38437 8.83871C1.31516 8.3455 0.540613 7.355 0.341631 6.16895L0.252689 5.63884C0.236135 5.54025 0.325638 5.45666 0.423278 5.47941L0.948398 5.60204C1.22791 5.66725 1.51684 5.70041 1.80723 5.70041C1.81066 5.70041 1.81408 5.70041 1.81756 5.70041C0.697734 4.98565 0.0324946 3.77768 0.0324946 2.44809C0.0324946 2.11738 0.0741318 1.79025 0.15634 1.47576L0.313349 0.874857C0.340621 0.770455 0.471143 0.734779 0.548077 0.81055L0.991214 1.24717C2.16154 2.40033 3.59858 3.28805 5.14729 3.81447C5.55732 3.94404 6.80088 4.2956 7.23145 4.29734L7.24205 4.29745C7.24205 4.29745 7.36781 4.30192 7.44844 4.30567C7.44794 4.28308 7.44755 4.26049 7.44755 4.23784C7.44755 1.90109 9.35528 0 11.7002 0C12.8199 0 13.8712 0.427447 14.6703 1.20573C14.7019 1.23649 14.7458 1.25147 14.7895 1.24487C15.2004 1.18275 15.6093 1.08472 16.0025 0.953479L17.3135 0.515743C17.4509 0.46989 17.5595 0.636137 17.462 0.742775L16.5305 1.76101C16.4064 1.89667 16.273 2.02293 16.1313 2.13908C16.0191 2.23107 16.1026 2.41196 16.2454 2.38523C16.3724 2.36153 16.4986 2.33468 16.6235 2.30482L17.8261 2.01729C17.9629 1.98463 18.0577 2.15021 17.9597 2.25086L17.0988 3.13562C16.7502 3.49383 16.3637 3.82258 15.9499 4.11286L15.9506 4.1331C15.9518 4.16788 15.9529 4.20272 15.9529 4.23784V4.28006C15.9286 10.192 11.0837 15 5.15296 15Z" fill="white"/>
</svg>
